# xmcd
#
# Track frame offsets:
#	150
#	11905
#	23805
#	37117
#	52584
#	62060
#	73103
#	84253
#
# Disc length: 1589 seconds
#
# Revision: 0
# Processed by: cddbd v1.5.2PL0 Copyright (c) Steve Scherf et al.
# Submitted via: dBpowerAMP V4.0
#
DISCID=60063308
DTITLE=O Lendário Chucrobillyman - Ao Vivo em 19 de Agosto de 2007
DYEAR=2007
DGENRE=Bluegrass
TTITLE0=I´m Stranded
TTITLE1=Garotas com Decotes Violentos
TTITLE2=The Ice Cream Man
TTITLE3=Hey garota, Vamos Sair Por Aí
TTITLE4=I´m Gonna Leave You
TTITLE5=The Valley Of The Monkey Man
TTITLE6=We Got To Move
TTITLE7=Sexy Gorila Suit
EXTD=
EXTT0=
EXTT1=
EXTT2=
EXTT3=
EXTT4=
EXTT5=
EXTT6=
EXTT7=
PLAYORDER=
